<svg width="152" height="31" viewBox="0 0 152 31" fill="none" xmlns="http://www.w3.org/2000/svg">
<path d="M5.166 1.3H11.275L15.949 30H11.439L10.619 24.301V24.383H5.494L4.674 30H0.492L5.166 1.3ZM10.086 20.488L8.077 6.302H7.995L6.027 20.488H10.086ZM24.617 30.41C22.4303 30.41 20.763 29.795 19.615 28.565C18.467 27.3077 17.893 25.5173 17.893 23.194V1.3H22.403V23.522C22.403 24.506 22.5943 25.2167 22.977 25.654C23.387 26.0913 23.961 26.31 24.699 26.31C25.437 26.31 25.9973 26.0913 26.38 25.654C26.79 25.2167 26.995 24.506 26.995 23.522V1.3H31.341V23.194C31.341 25.5173 30.767 27.3077 29.619 28.565C28.471 29.795 26.8036 30.41 24.617 30.41ZM40.9081 30.41C38.7487 30.41 37.0951 29.795 35.9471 28.565C34.8264 27.335 34.2661 25.5993 34.2661 23.358V7.942C34.2661 5.70067 34.8264 3.965 35.9471 2.735C37.0951 1.505 38.7487 0.889998 40.9081 0.889998C43.0674 0.889998 44.7074 1.505 45.8281 2.735C46.9761 3.965 47.5501 5.70067 47.5501 7.942V10.976H43.2861V7.655C43.2861 5.87833 42.5344 4.99 41.0311 4.99C39.5277 4.99 38.7761 5.87833 38.7761 7.655V23.686C38.7761 25.4353 39.5277 26.31 41.0311 26.31C42.5344 26.31 43.2861 25.4353 43.2861 23.686V19.299H47.5501V23.358C47.5501 25.5993 46.9761 27.335 45.8281 28.565C44.7074 29.795 43.0674 30.41 40.9081 30.41ZM53.7744 5.4H49.0594V1.3H62.9994V5.4H58.2844V30H53.7744V5.4ZM65.183 1.3H69.693V30H65.183V1.3ZM79.5896 30.41C77.3756 30.41 75.681 29.7813 74.5056 28.524C73.3303 27.2667 72.7426 25.49 72.7426 23.194V8.106C72.7426 5.81 73.3303 4.03333 74.5056 2.776C75.681 1.51867 77.3756 0.889998 79.5896 0.889998C81.8036 0.889998 83.4983 1.51867 84.6736 2.776C85.849 4.03333 86.4366 5.81 86.4366 8.106V23.194C86.4366 25.49 85.849 27.2667 84.6736 28.524C83.4983 29.7813 81.8036 30.41 79.5896 30.41ZM79.5896 26.31C81.1476 26.31 81.9266 25.367 81.9266 23.481V7.819C81.9266 5.933 81.1476 4.99 79.5896 4.99C78.0316 4.99 77.2526 5.933 77.2526 7.819V23.481C77.2526 25.367 78.0316 26.31 79.5896 26.31ZM89.4867 1.3H95.1447L99.5317 18.479H99.6137V1.3H103.632V30H98.9987L93.5867 9.049H93.5047V30H89.4867V1.3ZM108.722 18.1H111.476C112.406 18.1 113.103 18.3493 113.567 18.848C114.032 19.3467 114.264 20.0777 114.264 21.041V22.214C114.264 23.1773 114.032 23.9083 113.567 24.407C113.103 24.9057 112.406 25.155 111.476 25.155H110.592V30H108.722V18.1ZM111.476 23.455C111.782 23.455 112.009 23.37 112.156 23.2C112.315 23.03 112.394 22.741 112.394 22.333V20.922C112.394 20.514 112.315 20.225 112.156 20.055C112.009 19.885 111.782 19.8 111.476 19.8H110.592V23.455H111.476ZM115.28 18.1H118.051C119.014 18.1 119.717 18.3267 120.159 18.78C120.601 19.222 120.822 19.9077 120.822 20.837V21.568C120.822 22.8033 120.414 23.5853 119.598 23.914V23.948C120.051 24.084 120.369 24.3617 120.55 24.781C120.743 25.2003 120.839 25.7613 120.839 26.464V28.555C120.839 28.895 120.85 29.1727 120.873 29.388C120.896 29.592 120.952 29.796 121.043 30H119.139C119.071 29.8073 119.026 29.626 119.003 29.456C118.98 29.286 118.969 28.98 118.969 28.538V26.362C118.969 25.818 118.878 25.4383 118.697 25.223C118.527 25.0077 118.227 24.9 117.796 24.9H117.15V30H115.28V18.1ZM117.83 23.2C118.204 23.2 118.482 23.1037 118.663 22.911C118.856 22.7183 118.952 22.3953 118.952 21.942V21.024C118.952 20.5933 118.873 20.2817 118.714 20.089C118.567 19.8963 118.329 19.8 118 19.8H117.15V23.2H117.83ZM124.839 30.17C123.921 30.17 123.219 29.9093 122.731 29.388C122.244 28.8667 122 28.13 122 27.178V20.922C122 19.97 122.244 19.2333 122.731 18.712C123.219 18.1907 123.921 17.93 124.839 17.93C125.757 17.93 126.46 18.1907 126.947 18.712C127.435 19.2333 127.678 19.97 127.678 20.922V27.178C127.678 28.13 127.435 28.8667 126.947 29.388C126.46 29.9093 125.757 30.17 124.839 30.17ZM124.839 28.47C125.485 28.47 125.808 28.079 125.808 27.297V20.803C125.808 20.021 125.485 19.63 124.839 19.63C124.193 19.63 123.87 20.021 123.87 20.803V27.297C123.87 28.079 124.193 28.47 124.839 28.47ZM129.385 30.068C129.045 30.068 128.756 30.0453 128.518 30V28.3C128.699 28.3453 128.903 28.368 129.13 28.368C129.504 28.368 129.782 28.2773 129.963 28.096C130.144 27.9033 130.235 27.6143 130.235 27.229V18.1H132.105V27.178C132.105 28.1527 131.878 28.878 131.425 29.354C130.983 29.83 130.303 30.068 129.385 30.068ZM133.442 18.1H138.542V19.8H135.312V22.945H137.879V24.645H135.312V28.3H138.542V30H133.442V18.1ZM142.253 30.17C141.358 30.17 140.672 29.915 140.196 29.405C139.731 28.895 139.499 28.1753 139.499 27.246V20.854C139.499 19.9247 139.731 19.205 140.196 18.695C140.672 18.185 141.358 17.93 142.253 17.93C143.148 17.93 143.828 18.185 144.293 18.695C144.769 19.205 145.007 19.9247 145.007 20.854V22.112H143.239V20.735C143.239 19.9983 142.927 19.63 142.304 19.63C141.681 19.63 141.369 19.9983 141.369 20.735V27.382C141.369 28.1073 141.681 28.47 142.304 28.47C142.927 28.47 143.239 28.1073 143.239 27.382V25.563H145.007V27.246C145.007 28.1753 144.769 28.895 144.293 29.405C143.828 29.915 143.148 30.17 142.253 30.17ZM147.588 19.8H145.633V18.1H151.413V19.8H149.458V30H147.588V19.8Z" fill="white"/>
</svg>
