<svg width="25" height="25" viewBox="0 0 25 25" fill="none" xmlns="http://www.w3.org/2000/svg">
<g clip-path="url(#clip0)">
<path d="M21.4645 7.80363H9.97243C9.12202 7.80363 8.35799 8.17482 7.83548 8.76154C7.31297 8.17482 6.54894 7.80363 5.69853 7.80363C5.17973 7.80363 4.69336 7.94226 4.2739 8.18309V3.57275H0V20.4962H4.2739V17.6757H20.0398V20.4962H24.3137C24.3137 19.1528 24.3137 11.8012 24.3137 10.6242C24.3137 9.06894 23.0355 7.80363 21.4645 7.80363ZM2.84926 19.086H1.42463V4.98304H2.84926C2.84926 9.38179 2.84926 14.6819 2.84926 19.086ZM4.2739 10.6242C4.2739 9.84657 4.91299 9.21392 5.69853 9.21392C6.48407 9.21392 7.12316 9.84657 7.12316 10.6242V12.0345H4.2739V10.6242ZM22.8891 19.086H21.4645V17.6757H22.8891V19.086ZM22.8891 16.2654C22.0165 16.2654 5.254 16.2654 4.2739 16.2654V13.4448H22.8891V16.2654ZM22.8891 12.0345H8.54779V10.6242C8.54779 9.84657 9.18688 9.21392 9.97243 9.21392H21.4645C22.25 9.21392 22.8891 9.84657 22.8891 10.6242V12.0345Z" fill="#1B9AD6"/>
</g>
<defs>
<clipPath id="clip0">
<rect width="24.3137" height="24.069" fill="white"/>
</clipPath>
</defs>
</svg>
