<svg width="24" height="24" viewBox="0 0 24 24" fill="none" xmlns="http://www.w3.org/2000/svg">
<path d="M11.994 0.00012207C5.364 0.00012207 0 5.37012 0 12.0001C0 18.6301 5.364 24.0001 11.994 24.0001C18.624 24.0001 24 18.6301 24 12.0001C24 5.37012 18.624 0.00012207 11.994 0.00012207ZM12 21.6001C6.696 21.6001 2.4 17.3041 2.4 12.0001C2.4 6.69612 6.696 2.40012 12 2.40012C17.304 2.40012 21.6 6.69612 21.6 12.0001C21.6 17.3041 17.304 21.6001 12 21.6001ZM12.6 6.00012H10.8V13.2001L17.094 16.9801L18 15.5041L12.6 12.3001V6.00012Z" fill="#1B9AD6"/>
</svg>
