<svg width="24" height="24" viewBox="0 0 24 24" fill="none" xmlns="http://www.w3.org/2000/svg">
<path d="M12 24.0001C5.383 24.0001 0 18.6171 0 12.0001C0 5.38312 5.383 0.00012207 12 0.00012207C18.617 0.00012207 24 5.38312 24 12.0001C24 18.6171 18.617 24.0001 12 24.0001ZM12 2.00012C6.486 2.00012 2 6.48612 2 12.0001C2 17.5141 6.486 22.0001 12 22.0001C17.514 22.0001 22 17.5141 22 12.0001C22 6.48612 17.514 2.00012 12 2.00012Z" fill="#1B9AD6"/>
<path d="M9.23819 9.23807L5.09619 18.9041L14.7622 14.7621L18.9042 5.09607L9.23819 9.23807ZM8.90419 15.0961L10.7622 10.7621L13.2392 13.2391L8.90419 15.0961Z" fill="#1B9AD6"/>
</svg>
