<svg width="25" height="25" viewBox="0 0 25 25" fill="none" xmlns="http://www.w3.org/2000/svg">
<g clip-path="url(#clip0)">
<path d="M23.2565 0.690674H7.39978C6.96195 0.690674 6.60693 1.04207 6.60693 1.47554V17.6958C6.60693 18.1292 6.9619 18.4807 7.39978 18.4807H23.2565C23.6943 18.4807 24.0493 18.1293 24.0493 17.6958V1.4755C24.0493 1.04207 23.6944 0.690674 23.2565 0.690674ZM22.4637 6.96949H20.0852C19.6473 6.96949 19.2923 7.32088 19.2923 7.75436C19.2923 8.18783 19.6473 8.53923 20.0852 8.53923H22.4637V16.911H12.4211V14.5564C12.4211 14.123 12.0661 13.7716 11.6282 13.7716C11.1903 13.7716 10.8354 14.123 10.8354 14.5564V16.911H8.19259V2.26037H10.8354V10.8937C10.8354 11.3272 11.1903 11.6786 11.6282 11.6786C12.0661 11.6786 12.4211 11.3272 12.4211 10.8937V8.53918H16.3852C16.8231 8.53918 17.1781 8.18778 17.1781 7.75431C17.1781 7.32084 16.8231 6.96944 16.3852 6.96944H12.4211V2.26037H22.4636V6.96949H22.4637Z" fill="#1B9AD6"/>
<path d="M23.8173 21.8489L22.2318 20.2793C21.9222 19.9728 21.4201 19.9728 21.1105 20.2793C20.8009 20.5858 20.8009 21.0828 21.1105 21.3893L21.3427 21.6192H6.14281L6.37502 21.3893C6.68464 21.0828 6.68464 20.5859 6.37507 20.2794C6.0655 19.9729 5.56346 19.9729 5.25384 20.2794L3.66833 21.849C3.35658 22.1572 3.36194 22.6562 3.66833 22.9592L5.25384 24.5288C5.56341 24.8353 6.06545 24.8353 6.37507 24.5288C6.68469 24.2223 6.68469 23.7253 6.37507 23.4188L6.14281 23.1889H21.3427L21.1105 23.4188C20.8009 23.7253 20.8009 24.2222 21.1105 24.5287C21.42 24.8352 21.9221 24.8353 22.2317 24.5287L23.8172 22.9591C24.1264 22.6534 24.1257 22.1539 23.8173 21.8489Z" fill="#1B9AD6"/>
<path d="M3.66824 17.1399L3.43597 17.3698V3.36938L3.66824 3.59925C3.97781 3.90575 4.47984 3.9058 4.78946 3.59925C5.09908 3.2928 5.09913 2.79581 4.78946 2.48931L3.20376 0.919573C2.89419 0.613072 2.39215 0.613072 2.08253 0.919573L0.49688 2.48927C0.187262 2.79572 0.187214 3.2927 0.49688 3.5992C0.806451 3.90571 1.30849 3.90571 1.61811 3.5992L1.85032 3.36933V17.3697L1.61811 17.1398C1.30854 16.8333 0.806498 16.8333 0.49688 17.1398C0.187262 17.4463 0.187214 17.9433 0.49688 18.2498L2.08253 19.8195C2.3921 20.126 2.89414 20.126 3.20376 19.8195L4.78941 18.2498C5.09903 17.9433 5.09908 17.4464 4.78941 17.1398C4.47989 16.8334 3.97785 16.8334 3.66824 17.1399Z" fill="#1B9AD6"/>
</g>
<defs>
<clipPath id="clip0">
<rect width="24.3137" height="24.069" fill="white" transform="translate(0 0.689697)"/>
</clipPath>
</defs>
</svg>
