<svg width="25" height="25" viewBox="0 0 25 25" fill="none" xmlns="http://www.w3.org/2000/svg">
<g clip-path="url(#clip0)">
<path d="M17.6814 0.13501H12.2044C9.58588 0.13501 7.4556 2.24384 7.4556 4.83598V7.59964C4.29062 8.05651 1.85205 10.7607 1.85205 14.0187C1.85205 14.5378 2.27721 14.9589 2.80181 14.9589H14.0089C14.5335 14.9589 14.9587 14.5378 14.9587 14.0187C14.9587 10.7607 12.5201 8.05651 9.35511 7.59964V4.83598C9.35511 3.28062 10.6332 2.0154 12.2044 2.0154H17.6812C19.2524 2.0154 20.5305 3.28062 20.5305 4.83598V23.2638C20.5305 23.7831 20.9557 24.204 21.4803 24.204C22.0048 24.204 22.43 23.7831 22.43 23.2638V4.83598C22.4302 2.24384 20.2997 0.13501 17.6814 0.13501ZM12.9618 13.0783H3.84895C4.28858 10.9873 6.16453 9.41153 8.40536 9.41153C10.6462 9.41153 12.5221 10.9873 12.9618 13.0783ZM9.35511 17.2544V18.6647C9.35511 19.184 8.92995 19.6049 8.40536 19.6049C7.88077 19.6049 7.4556 19.184 7.4556 18.6647V17.2544C7.4556 16.7351 7.88077 16.3142 8.40536 16.3142C8.92995 16.3142 9.35511 16.7351 9.35511 17.2544ZM9.3438 21.8535V23.2638C9.3438 23.7831 8.91863 24.204 8.39404 24.204C7.86964 24.204 7.44429 23.7831 7.44429 23.2638V21.8535C7.44429 21.3342 7.86964 20.9133 8.39404 20.9133C8.91863 20.9133 9.3438 21.3342 9.3438 21.8535ZM5.6251 17.2544V18.6647C5.6251 19.184 5.19975 19.6049 4.67535 19.6049C4.15075 19.6049 3.72559 19.184 3.72559 18.6647V17.2544C3.72559 16.7351 4.15075 16.3142 4.67535 16.3142C5.19975 16.3142 5.6251 16.7351 5.6251 17.2544ZM5.61379 21.8535V23.2638C5.61379 23.7831 5.18862 24.204 4.66403 24.204C4.13944 24.204 3.71428 23.7831 3.71428 23.2638V21.8535C3.71428 21.3342 4.13944 20.9133 4.66403 20.9133C5.18862 20.9133 5.61379 21.3342 5.61379 21.8535ZM13.074 17.2544V18.6647C13.074 19.184 12.6486 19.6049 12.1242 19.6049C11.5997 19.6049 11.1745 19.184 11.1745 18.6647V17.2544C11.1745 16.7351 11.5997 16.3142 12.1242 16.3142C12.6486 16.3142 13.074 16.7351 13.074 17.2544ZM13.0627 21.8535V23.2638C13.0627 23.7831 12.6373 24.204 12.1129 24.204C11.5883 24.204 11.1632 23.7831 11.1632 23.2638V21.8535C11.1632 21.3342 11.5883 20.9133 12.1129 20.9133C12.6373 20.9133 13.0627 21.3342 13.0627 21.8535Z" fill="#1B9AD6"/>
</g>
<defs>
<clipPath id="clip0">
<rect width="24.3137" height="24.069" fill="white" transform="translate(0 0.13501)"/>
</clipPath>
</defs>
</svg>
