<svg width="484" height="300" viewBox="0 0 484 300" fill="none" xmlns="http://www.w3.org/2000/svg">
<mask id="mask0" mask-type="alpha" maskUnits="userSpaceOnUse" x="0" y="0" width="484" height="300">
<rect x="0.322266" width="483.356" height="300" fill="#C4C4C4"/>
</mask>
<g mask="url(#mask0)">
<path d="M444.9 219.707C416.536 227.307 387.601 217.828 369.005 197.568L434.281 180.077L428.213 157.431L355.577 176.894C354.025 173.366 352.613 169.679 351.581 165.829C350.55 161.98 349.93 158.08 349.51 154.249L422.145 134.786L416.077 112.14L350.801 129.631C356.776 102.788 377.038 80.1257 405.458 72.5104C423.745 67.6107 442.236 69.8162 458.045 77.4125L472.788 52.0426C450.462 40.7316 423.972 37.2105 397.874 44.2036C353.545 56.0815 323.497 94.5329 320.116 137.853L280.204 148.548L286.272 171.193L320.919 161.91C321.468 165.767 322.242 169.565 323.274 173.414C324.305 177.264 325.533 180.94 326.987 184.555L292.339 193.839L298.407 216.484L338.32 205.79C362.908 241.616 408.156 259.892 452.484 248.014C478.583 241.021 499.763 224.727 513.443 203.768L487.975 189.112C478.082 203.595 463.186 214.807 444.9 219.707Z" fill="#1579A9" fill-opacity="0.1"/>
</g>
</svg>
