<svg width="484" height="300" viewBox="0 0 484 300" fill="none" xmlns="http://www.w3.org/2000/svg">
<mask id="mask0" mask-type="alpha" maskUnits="userSpaceOnUse" x="0" y="0" width="484" height="300">
<rect width="483.356" height="300" fill="#C4C4C4"/>
</mask>
<g mask="url(#mask0)">
<path d="M508.322 252.494L445.29 189.377C457.807 172.267 465.294 151.249 465.294 128.457C465.294 71.4124 418.943 25 361.975 25C305.006 25 258.655 71.4124 258.655 128.457C258.655 185.502 305.006 231.914 361.975 231.914C384.729 231.914 405.726 224.417 422.814 211.883L485.846 275L508.322 252.494ZM274.551 128.457C274.551 80.1904 313.772 40.9165 361.975 40.9165C410.177 40.9165 449.399 80.1904 449.399 128.457C449.399 176.724 410.177 215.998 361.975 215.998C313.772 215.998 274.551 176.724 274.551 128.457Z" fill="#1579A9" fill-opacity="0.1"/>
</g>
</svg>
