<svg width="24" height="24" viewBox="0 0 24 24" fill="none" xmlns="http://www.w3.org/2000/svg">
<path d="M12 0C5.383 0 0 5.383 0 12C0 18.617 5.383 24 12 24C18.617 24 24 18.617 24 12C24 5.383 18.617 0 12 0ZM12 22C9.5 22 7.217 21.071 5.462 19.549C5.47 19.536 5.481 19.525 5.488 19.512C7.14 16.744 6.101 15.053 5.334 14.291C5.132 14.09 4.901 13.907 4.663 13.723C4.041 13.24 3.629 12.921 3.629 12C3.629 11.566 3.871 11.396 5.066 10.988C5.888 10.707 6.819 10.389 7.42 9.612C8.815 7.808 7.281 5.026 6.959 4.486C6.794 4.209 6.615 3.949 6.429 3.7C7.932 2.688 9.726 2.084 11.654 2.017C11.966 2.546 12.481 2.992 12.987 3.427C13.419 3.799 14.105 3.955 14.458 4.395C14.66 4.647 14.562 5.133 14.569 5.451C14.583 6.082 14.965 6.997 16.253 6.997C16.31 6.997 16.369 6.995 16.43 6.991C16.928 6.956 18.482 6.6 20.044 6.084C21.268 7.744 22 9.786 22 12C22 17.514 17.514 22 12 22Z" fill="white"/>
</svg>
